<?xml version="1.0" encoding="UTF-8"?>
<!DOCTYPE svg PUBLIC "-//W3C//DTD SVG 1.1//EN" "http://www.w3.org/Graphics/SVG/1.1/DTD/svg11.dtd">
<svg xmlns="http://www.w3.org/2000/svg" version="1.1" width="3230px" height="1312px" style="shape-rendering:geometricPrecision; text-rendering:geometricPrecision; image-rendering:optimizeQuality; fill-rule:evenodd; clip-rule:evenodd" xmlns:xlink="http://www.w3.org/1999/xlink">
<g><path style="opacity:1" fill="#f9f9f9" d="M -0.5,-0.5 C 1076.17,-0.5 2152.83,-0.5 3229.5,-0.5C 3229.5,436.833 3229.5,874.167 3229.5,1311.5C 2152.83,1311.5 1076.17,1311.5 -0.5,1311.5C -0.5,874.167 -0.5,436.833 -0.5,-0.5 Z"/></g>
<g><path style="opacity:1" fill="#010101" d="M 1959.5,322.5 C 1957.1,329.141 1955.44,336.141 1954.5,343.5C 1954.5,343.833 1954.5,344.167 1954.5,344.5C 1952.8,349.959 1951.47,355.626 1950.5,361.5C 1946.27,382.543 1941.94,403.543 1937.5,424.5C 1936.88,424.611 1936.38,424.944 1936,425.5C 1935.26,429.813 1934.76,434.147 1934.5,438.5C 1934.08,442.189 1933.08,445.689 1931.5,449C 1923.41,452.035 1915.91,455.868 1909,460.5C 1896.72,466.253 1884.89,472.586 1873.5,479.5C 1866.98,482.514 1860.65,485.847 1854.5,489.5C 1831.23,500.286 1808.9,512.786 1787.5,527C 1777.27,536.293 1769.11,547.127 1763,559.5C 1761.97,562.802 1761.14,566.135 1760.5,569.5C 1759.7,570.952 1759.2,572.618 1759,574.5C 1758.67,574.167 1758.33,573.833 1758,573.5C 1757.5,583.161 1757.33,592.828 1757.5,602.5C 1757.89,606.692 1759.23,610.359 1761.5,613.5C 1762.6,617.805 1764.27,621.139 1766.5,623.5C 1767.15,626.803 1768.82,629.47 1771.5,631.5C 1772.11,632.391 1772.44,633.391 1772.5,634.5C 1773.55,635.878 1774.88,636.878 1776.5,637.5C 1776.82,639.048 1777.82,639.715 1779.5,639.5C 1780.14,641.76 1781.31,643.76 1783,645.5C 1786.07,649.22 1789.57,652.554 1793.5,655.5C 1794.39,656.325 1794.72,657.325 1794.5,658.5C 1795.68,658.281 1796.68,658.614 1797.5,659.5C 1805.81,668.322 1813.81,677.322 1821.5,686.5C 1822.48,688.48 1823.82,690.147 1825.5,691.5C 1827.05,691.821 1827.71,692.821 1827.5,694.5C 1829.14,694.48 1830.48,695.147 1831.5,696.5C 1834.32,699.891 1836.98,703.391 1839.5,707C 1806.42,725.211 1773.09,743.045 1739.5,760.5C 1720.87,737.311 1701.87,714.311 1682.5,691.5C 1667.25,671.446 1656.58,649.113 1650.5,624.5C 1649.9,621.873 1649.4,619.207 1649,616.5C 1648.62,615.944 1648.12,615.611 1647.5,615.5C 1647.5,614.5 1647.5,613.5 1647.5,612.5C 1644.56,594.758 1644.89,577.091 1648.5,559.5C 1648.5,558.167 1648.5,556.833 1648.5,555.5C 1650.04,553.162 1650.71,550.495 1650.5,547.5C 1651.45,546.081 1651.78,544.415 1651.5,542.5C 1653.59,537.809 1654.92,532.809 1655.5,527.5C 1663.4,508.369 1673.4,490.369 1685.5,473.5C 1708.51,445.175 1736.51,423.341 1769.5,408C 1833.55,374.298 1897.38,340.131 1961,305.5C 1960.85,311.174 1960.35,316.841 1959.5,322.5 Z"/></g>
<g><path style="opacity:1" fill="#c7c7c7" d="M 1959.5,322.5 C 1959.86,326.683 1959.2,330.683 1957.5,334.5C 1957.61,335.442 1957.94,336.275 1958.5,337C 1957.11,339.207 1955.78,341.374 1954.5,343.5C 1955.44,336.141 1957.1,329.141 1959.5,322.5 Z"/></g>
<g><path style="opacity:1" fill="#818080" d="M 1585.5,335.5 C 1575.48,335.334 1565.48,335.668 1555.5,336.5C 1565.41,333.005 1575.41,332.672 1585.5,335.5 Z"/></g>
<g><path style="opacity:1" fill="#010101" d="M 1585.5,335.5 C 1611.93,341.932 1628.93,358.266 1636.5,384.5C 1636.26,386.898 1636.93,388.898 1638.5,390.5C 1638.5,391.167 1638.5,391.833 1638.5,392.5C 1638.56,399.524 1638.23,406.524 1637.5,413.5C 1632.76,435.005 1620.76,451.005 1601.5,461.5C 1598.28,461.345 1595.62,462.345 1593.5,464.5C 1593.17,464.5 1592.83,464.5 1592.5,464.5C 1581.61,467.356 1570.61,468.023 1559.5,466.5C 1529.32,458.649 1511.65,439.316 1506.5,408.5C 1506.5,402.5 1506.5,396.5 1506.5,390.5C 1512.38,362.953 1528.72,344.953 1555.5,336.5C 1565.48,335.668 1575.48,335.334 1585.5,335.5 Z"/></g>
<g><path style="opacity:1" fill="#aeaeae" d="M 1954.5,344.5 C 1954.67,348.514 1954.5,352.514 1954,356.5C 1953.67,355.833 1953.33,355.167 1953,354.5C 1952.67,356.5 1952.33,358.5 1952,360.5C 1951.62,361.056 1951.12,361.389 1950.5,361.5C 1951.47,355.626 1952.8,349.959 1954.5,344.5 Z"/></g>
<g><path style="opacity:1" fill="#707070" d="M 1636.5,384.5 C 1638.07,386.102 1638.74,388.102 1638.5,390.5C 1636.93,388.898 1636.26,386.898 1636.5,384.5 Z"/></g>
<g><path style="opacity:1" fill="#9f9e9e" d="M 1638.5,392.5 C 1639.17,395.817 1639.5,399.317 1639.5,403C 1639.49,406.902 1638.82,410.402 1637.5,413.5C 1638.23,406.524 1638.56,399.524 1638.5,392.5 Z"/></g>
<g><path style="opacity:1" fill="#c7c7c7" d="M 1506.5,390.5 C 1506.5,396.5 1506.5,402.5 1506.5,408.5C 1505.02,404.946 1504.35,401.112 1504.5,397C 1504.67,394.5 1504.83,392 1505,389.5C 1505.38,390.056 1505.88,390.389 1506.5,390.5 Z"/></g>
<g><path style="opacity:1" fill="#4a4949" d="M 1937.5,424.5 C 1937.05,429.404 1936.05,434.07 1934.5,438.5C 1934.76,434.147 1935.26,429.813 1936,425.5C 1936.38,424.944 1936.88,424.611 1937.5,424.5 Z"/></g>
<g><path style="opacity:1" fill="#838483" d="M 1601.5,461.5 C 1599.06,462.871 1596.4,463.871 1593.5,464.5C 1595.62,462.345 1598.28,461.345 1601.5,461.5 Z"/></g>
<g><path style="opacity:1" fill="#989999" d="M 1592.5,464.5 C 1589.79,466.108 1586.79,467.275 1583.5,468C 1575.83,468.667 1568.17,468.667 1560.5,468C 1559.94,467.617 1559.61,467.117 1559.5,466.5C 1570.61,468.023 1581.61,467.356 1592.5,464.5 Z"/></g>
<g><path style="opacity:1" fill="#c6c7c5" d="M 1873.5,479.5 C 1869.21,483.63 1864.04,487.296 1858,490.5C 1856.99,489.663 1855.82,489.33 1854.5,489.5C 1860.65,485.847 1866.98,482.514 1873.5,479.5 Z"/></g>
<g><path style="opacity:1" fill="#8f8f8e" d="M 1655.5,527.5 C 1654.92,532.809 1653.59,537.809 1651.5,542.5C 1652.22,537.83 1653.05,533.163 1654,528.5C 1654.38,527.944 1654.88,527.611 1655.5,527.5 Z"/></g>
<g><path style="opacity:1" fill="#010101" d="M 1599.5,632.5 C 1600.24,634.94 1601.57,636.94 1603.5,638.5C 1605.3,642.314 1606.63,646.314 1607.5,650.5C 1607.62,653.105 1608.62,655.105 1610.5,656.5C 1610.5,656.833 1610.5,657.167 1610.5,657.5C 1610.34,660.187 1610.5,662.854 1611,665.5C 1611.67,664.748 1612.5,664.414 1613.5,664.5C 1613.5,665.833 1613.5,667.167 1613.5,668.5C 1614.72,673.643 1616.05,678.643 1617.5,683.5C 1617.5,685.167 1617.5,686.833 1617.5,688.5C 1618.56,700.511 1618.56,712.511 1617.5,724.5C 1617.35,728.519 1617.02,732.519 1616.5,736.5C 1614.17,750.501 1610.5,764.168 1605.5,777.5C 1603.39,778.784 1602.39,780.784 1602.5,783.5C 1599,792.162 1594.67,800.495 1589.5,808.5C 1583.81,816.033 1578.48,823.7 1573.5,831.5C 1572.32,831.281 1571.32,831.614 1570.5,832.5C 1567.39,837.949 1563.06,841.949 1557.5,844.5C 1557.74,847.034 1556.74,848.7 1554.5,849.5C 1550.81,851.855 1547.81,854.855 1545.5,858.5C 1536.54,864.444 1527.54,870.444 1518.5,876.5C 1503.76,884.18 1489.09,891.846 1474.5,899.5C 1473.29,899.932 1472.29,900.599 1471.5,901.5C 1469.5,902.5 1467.5,903.5 1465.5,904.5C 1461.86,906.268 1458.53,908.268 1455.5,910.5C 1453.83,911.167 1452.17,911.833 1450.5,912.5C 1444.94,915.555 1439.28,918.389 1433.5,921C 1432.62,921.708 1431.95,922.542 1431.5,923.5C 1388.61,945.71 1345.95,968.377 1303.5,991.5C 1302.57,990.311 1302.24,988.978 1302.5,987.5C 1303.46,985.698 1304.12,983.698 1304.5,981.5C 1304.5,980.833 1304.5,980.167 1304.5,979.5C 1305.77,977.095 1306.43,974.428 1306.5,971.5C 1306.5,970.167 1306.5,968.833 1306.5,967.5C 1307.46,965.698 1308.12,963.698 1308.5,961.5C 1308.5,960.5 1308.5,959.5 1308.5,958.5C 1309.61,956.401 1310.28,954.067 1310.5,951.5C 1310.5,950.833 1310.5,950.167 1310.5,949.5C 1311.25,946.947 1311.92,944.28 1312.5,941.5C 1312.5,940.833 1312.5,940.167 1312.5,939.5C 1313.41,937.343 1314.07,935.01 1314.5,932.5C 1314.5,930.833 1314.5,929.167 1314.5,927.5C 1316.42,923.837 1317.42,919.837 1317.5,915.5C 1317.5,915.167 1317.5,914.833 1317.5,914.5C 1318.12,914.389 1318.62,914.056 1319,913.5C 1319.5,911.527 1319.66,909.527 1319.5,907.5C 1319.5,906.5 1319.5,905.5 1319.5,904.5C 1321.21,903.365 1321.88,901.698 1321.5,899.5C 1322.83,891.503 1324.17,883.503 1325.5,875.5C 1327.18,874.817 1327.84,873.483 1327.5,871.5C 1327.96,866.135 1328.62,860.801 1329.5,855.5C 1331.31,854.082 1331.97,852.082 1331.5,849.5C 1342.25,842.565 1353.58,836.565 1365.5,831.5C 1368.75,830.551 1371.42,828.884 1373.5,826.5C 1389.69,817.476 1406.03,808.81 1422.5,800.5C 1424.18,800.715 1425.18,800.048 1425.5,798.5C 1432.42,795.24 1439.08,791.574 1445.5,787.5C 1448.22,787.614 1450.22,786.614 1451.5,784.5C 1489.75,767.628 1508.08,738.295 1506.5,696.5C 1506.28,692.2 1505.28,688.2 1503.5,684.5C 1498.67,669.491 1490.33,656.825 1478.5,646.5C 1477.61,645.675 1477.28,644.675 1477.5,643.5C 1472.29,640.86 1468.29,636.86 1465.5,631.5C 1459.2,626.301 1453.37,620.635 1448,614.5C 1441.32,605.392 1434.15,596.726 1426.5,588.5C 1426.71,587.914 1427.04,587.414 1427.5,587C 1454.91,572.615 1482.58,558.615 1510.5,545C 1515.12,542.073 1519.79,539.24 1524.5,536.5C 1533.19,545.69 1541.69,555.024 1550,564.5C 1551.44,565.9 1552.27,567.567 1552.5,569.5C 1554.61,569.679 1556.27,570.679 1557.5,572.5C 1574.21,590.67 1588.21,610.67 1599.5,632.5 Z"/></g>
<g><path style="opacity:1" fill="#777776" d="M 1650.5,547.5 C 1650.71,550.495 1650.04,553.162 1648.5,555.5C 1648.29,552.505 1648.96,549.838 1650.5,547.5 Z"/></g>
<g><path style="opacity:1" fill="#bebebe" d="M 1648.5,559.5 C 1644.89,577.091 1644.56,594.758 1647.5,612.5C 1645.59,603.147 1643.92,593.647 1642.5,584C 1644.39,577.647 1645.56,571.147 1646,564.5C 1646.1,562.347 1646.93,560.681 1648.5,559.5 Z"/></g>
<g><path style="opacity:1" fill="#b4b3b3" d="M 1760.5,569.5 C 1758.32,581.095 1757.99,592.761 1759.5,604.5C 1758.83,603.833 1758.17,603.167 1757.5,602.5C 1757.33,592.828 1757.5,583.161 1758,573.5C 1758.33,573.833 1758.67,574.167 1759,574.5C 1759.2,572.618 1759.7,570.952 1760.5,569.5 Z"/></g>
<g><path style="opacity:1" fill="#444544" d="M 1757.5,602.5 C 1758.17,603.167 1758.83,603.833 1759.5,604.5C 1760.34,607.345 1761.01,610.345 1761.5,613.5C 1759.23,610.359 1757.89,606.692 1757.5,602.5 Z"/></g>
<g><path style="opacity:1" fill="#656565" d="M 1647.5,615.5 C 1648.12,615.611 1648.62,615.944 1649,616.5C 1649.4,619.207 1649.9,621.873 1650.5,624.5C 1649.88,624.389 1649.38,624.056 1649,623.5C 1648.43,620.832 1647.93,618.166 1647.5,615.5 Z"/></g>
<g><path style="opacity:1" fill="#bebebe" d="M 1766.5,623.5 C 1767.5,623.5 1768.5,623.5 1769.5,623.5C 1769.69,626.308 1770.36,628.975 1771.5,631.5C 1768.82,629.47 1767.15,626.803 1766.5,623.5 Z"/></g>
<g><path style="opacity:1" fill="#696969" d="M 1772.5,634.5 C 1774.62,634.468 1775.95,635.468 1776.5,637.5C 1774.88,636.878 1773.55,635.878 1772.5,634.5 Z"/></g>
<g><path style="opacity:1" fill="#979796" d="M 1599.5,632.5 C 1601.72,633.828 1603.05,635.828 1603.5,638.5C 1601.57,636.94 1600.24,634.94 1599.5,632.5 Z"/></g>
<g><path style="opacity:1" fill="#51504f" d="M 1607.5,650.5 C 1609.23,651.985 1610.23,653.985 1610.5,656.5C 1608.62,655.105 1607.62,653.105 1607.5,650.5 Z"/></g>
<g><path style="opacity:1" fill="#3f3f3f" d="M 1610.5,657.5 C 1612.29,659.428 1613.29,661.762 1613.5,664.5C 1612.5,664.414 1611.67,664.748 1611,665.5C 1610.5,662.854 1610.34,660.187 1610.5,657.5 Z"/></g>
<g><path style="opacity:1" fill="#747474" d="M 1613.5,668.5 C 1614.15,668.804 1614.82,669.137 1615.5,669.5C 1616.35,674.154 1617.01,678.821 1617.5,683.5C 1616.05,678.643 1614.72,673.643 1613.5,668.5 Z"/></g>
<g><path style="opacity:1" fill="#6b6b69" d="M 1503.5,684.5 C 1505.28,688.2 1506.28,692.2 1506.5,696.5C 1504.72,692.8 1503.72,688.8 1503.5,684.5 Z"/></g>
<g><path style="opacity:1" fill="#616160" d="M 1821.5,686.5 C 1823.93,687.265 1825.26,688.931 1825.5,691.5C 1823.82,690.147 1822.48,688.48 1821.5,686.5 Z"/></g>
<g><path style="opacity:1" fill="#616060" d="M 1617.5,688.5 C 1618.31,690.292 1618.81,692.292 1619,694.5C 1619.5,702.827 1619.67,711.16 1619.5,719.5C 1618.83,721.167 1618.17,722.833 1617.5,724.5C 1618.56,712.511 1618.56,700.511 1617.5,688.5 Z"/></g>
<g><path style="opacity:1" fill="#a8a8a8" d="M 1619.5,719.5 C 1619.55,724.552 1619.05,729.552 1618,734.5C 1617.72,735.416 1617.22,736.082 1616.5,736.5C 1617.02,732.519 1617.35,728.519 1617.5,724.5C 1618.17,722.833 1618.83,721.167 1619.5,719.5 Z"/></g>
<g><path style="opacity:1" fill="#565758" d="M 1605.5,777.5 C 1604.87,779.75 1603.87,781.75 1602.5,783.5C 1602.39,780.784 1603.39,778.784 1605.5,777.5 Z"/></g>
<g><path style="opacity:1" fill="#828280" d="M 1451.5,784.5 C 1450.22,786.614 1448.22,787.614 1445.5,787.5C 1447.25,786.13 1449.25,785.13 1451.5,784.5 Z"/></g>
<g><path style="opacity:1" fill="#696969" d="M 1425.5,798.5 C 1425.18,800.048 1424.18,800.715 1422.5,800.5C 1423.29,799.599 1424.29,798.932 1425.5,798.5 Z"/></g>
<g><path style="opacity:1" fill="#585756" d="M 1373.5,826.5 C 1371.42,828.884 1368.75,830.551 1365.5,831.5C 1367.58,829.116 1370.25,827.449 1373.5,826.5 Z"/></g>
<g><path style="opacity:1" fill="#908f8e" d="M 1681.5,829.5 C 1679.34,830.407 1677.01,831.073 1674.5,831.5C 1676.28,829.656 1678.61,828.99 1681.5,829.5 Z"/></g>
<g><path style="opacity:1" fill="#8e8e8e" d="M 1704.5,829.5 C 1707.15,829.41 1709.49,830.076 1711.5,831.5C 1708.85,831.59 1706.51,830.924 1704.5,829.5 Z"/></g>
<g><path style="opacity:1" fill="#6b6b6a" d="M 1673.5,831.5 C 1671.57,832.486 1669.57,833.486 1667.5,834.5C 1668.61,832.031 1670.61,831.031 1673.5,831.5 Z"/></g>
<g><path style="opacity:1" fill="#010101" d="M 1681.5,829.5 C 1689.17,829.5 1696.83,829.5 1704.5,829.5C 1706.51,830.924 1708.85,831.59 1711.5,831.5C 1715.33,832.444 1719,833.778 1722.5,835.5C 1723.83,837.719 1725.83,839.052 1728.5,839.5C 1739.87,847.394 1748.21,857.727 1753.5,870.5C 1754.33,873.659 1755.33,876.659 1756.5,879.5C 1757.45,880.919 1757.78,882.585 1757.5,884.5C 1757.5,892.167 1757.5,899.833 1757.5,907.5C 1756.34,914.473 1754.34,921.139 1751.5,927.5C 1749.27,928.401 1748.27,930.067 1748.5,932.5C 1739.29,946.352 1726.63,955.686 1710.5,960.5C 1701.23,961.996 1691.9,962.662 1682.5,962.5C 1652.62,957.115 1633.78,939.782 1626,910.5C 1625.5,907.854 1625.34,905.187 1625.5,902.5C 1625.61,895.82 1625.95,889.153 1626.5,882.5C 1627.44,877.245 1628.77,872.079 1630.5,867C 1634.23,861.419 1638.23,855.919 1642.5,850.5C 1644.83,848.5 1647.17,846.5 1649.5,844.5C 1650.39,843.675 1650.72,842.675 1650.5,841.5C 1651.87,841.657 1653.21,841.49 1654.5,841C 1658.35,837.743 1662.68,835.576 1667.5,834.5C 1669.57,833.486 1671.57,832.486 1673.5,831.5C 1673.83,831.5 1674.17,831.5 1674.5,831.5C 1677.01,831.073 1679.34,830.407 1681.5,829.5 Z"/></g>
<g><path style="opacity:1" fill="#6a6768" d="M 1722.5,835.5 C 1724.94,836.238 1726.94,837.571 1728.5,839.5C 1725.83,839.052 1723.83,837.719 1722.5,835.5 Z"/></g>
<g><path style="opacity:1" fill="#6c6b6b" d="M 1331.5,849.5 C 1331.97,852.082 1331.31,854.082 1329.5,855.5C 1329.59,853.214 1330.26,851.214 1331.5,849.5 Z"/></g>
<g><path style="opacity:1" fill="#b6b7b7" d="M 1554.5,849.5 C 1554.41,850.496 1554.75,851.329 1555.5,852C 1551.75,853.594 1548.42,855.76 1545.5,858.5C 1547.81,854.855 1550.81,851.855 1554.5,849.5 Z"/></g>
<g><path style="opacity:1" fill="#828182" d="M 1753.5,870.5 C 1755.85,872.841 1756.85,875.841 1756.5,879.5C 1755.33,876.659 1754.33,873.659 1753.5,870.5 Z"/></g>
<g><path style="opacity:1" fill="#5e5e60" d="M 1327.5,871.5 C 1327.84,873.483 1327.18,874.817 1325.5,875.5C 1325.16,873.517 1325.82,872.183 1327.5,871.5 Z"/></g>
<g><path style="opacity:1" fill="#535353" d="M 1626.5,882.5 C 1625.95,889.153 1625.61,895.82 1625.5,902.5C 1624.84,900.022 1624.5,897.355 1624.5,894.5C 1624.34,890.223 1625,886.223 1626.5,882.5 Z"/></g>
<g><path style="opacity:1" fill="#888586" d="M 1757.5,884.5 C 1760.12,892.176 1760.12,899.842 1757.5,907.5C 1757.5,899.833 1757.5,892.167 1757.5,884.5 Z"/></g>
<g><path style="opacity:1" fill="#84827f" d="M 1474.5,899.5 C 1474.18,901.048 1473.18,901.715 1471.5,901.5C 1472.29,900.599 1473.29,899.932 1474.5,899.5 Z"/></g>
<g><path style="opacity:1" fill="#5b5b5b" d="M 1321.5,899.5 C 1321.88,901.698 1321.21,903.365 1319.5,904.5C 1319.12,902.302 1319.79,900.635 1321.5,899.5 Z"/></g>
<g><path style="opacity:1" fill="#a9a9a9" d="M 1465.5,904.5 C 1463.91,907.057 1461.75,909.057 1459,910.5C 1457.85,909.316 1456.69,909.316 1455.5,910.5C 1458.53,908.268 1461.86,906.268 1465.5,904.5 Z"/></g>
<g><path style="opacity:1" fill="#504f4f" d="M 1319.5,907.5 C 1319.66,909.527 1319.5,911.527 1319,913.5C 1318.62,914.056 1318.12,914.389 1317.5,914.5C 1317.41,911.848 1318.08,909.515 1319.5,907.5 Z"/></g>
<g><path style="opacity:1" fill="#c8c9c7" d="M 1450.5,912.5 C 1448.63,914.33 1446.8,916.33 1445,918.5C 1444.67,918.167 1444.33,917.833 1444,917.5C 1440.48,920.916 1436.32,922.916 1431.5,923.5C 1431.95,922.542 1432.62,921.708 1433.5,921C 1439.28,918.389 1444.94,915.555 1450.5,912.5 Z"/></g>
<g><path style="opacity:1" fill="#9a9998" d="M 1317.5,915.5 C 1317.42,919.837 1316.42,923.837 1314.5,927.5C 1314.78,923.812 1315.28,920.145 1316,916.5C 1316.38,915.944 1316.88,915.611 1317.5,915.5 Z"/></g>
<g><path style="opacity:1" fill="#8e8e8f" d="M 1751.5,927.5 C 1751.28,929.664 1750.28,931.33 1748.5,932.5C 1748.27,930.067 1749.27,928.401 1751.5,927.5 Z"/></g>
<g><path style="opacity:1" fill="#929292" d="M 1314.5,932.5 C 1314.07,935.01 1313.41,937.343 1312.5,939.5C 1311.99,936.612 1312.66,934.279 1314.5,932.5 Z"/></g>
<g><path style="opacity:1" fill="#717171" d="M 1312.5,941.5 C 1311.92,944.28 1311.25,946.947 1310.5,949.5C 1309.96,946.302 1310.63,943.635 1312.5,941.5 Z"/></g>
<g><path style="opacity:1" fill="#868686" d="M 1310.5,951.5 C 1310.28,954.067 1309.61,956.401 1308.5,958.5C 1307.99,955.612 1308.66,953.279 1310.5,951.5 Z"/></g>
<g><path style="opacity:1" fill="#999999" d="M 1710.5,960.5 C 1703.84,962.906 1696.84,964.24 1689.5,964.5C 1686.17,964.333 1682.83,964.167 1679.5,964C 1680.74,963.768 1681.74,963.268 1682.5,962.5C 1691.9,962.662 1701.23,961.996 1710.5,960.5 Z"/></g>
<g><path style="opacity:1" fill="#89898a" d="M 1308.5,961.5 C 1308.12,963.698 1307.46,965.698 1306.5,967.5C 1306.03,964.918 1306.69,962.918 1308.5,961.5 Z"/></g>
<g><path style="opacity:1" fill="#6e6e6e" d="M 1306.5,971.5 C 1306.43,974.428 1305.77,977.095 1304.5,979.5C 1304.29,976.505 1304.96,973.838 1306.5,971.5 Z"/></g>
<g><path style="opacity:1" fill="#a4a4a4" d="M 1304.5,981.5 C 1304.12,983.698 1303.46,985.698 1302.5,987.5C 1302.03,984.918 1302.69,982.918 1304.5,981.5 Z"/></g>
</svg>
