<?xml version="1.0" encoding="utf-8"?>
<!DOCTYPE svg PUBLIC "-//W3C//DTD SVG 1.0//EN" "http://www.w3.org/TR/2001/REC-SVG-20010904/DTD/svg10.dtd">
<svg version="1.0" xmlns="http://www.w3.org/2000/svg" width="2592px" height="1685px" viewBox="0 0 2592 1685" preserveAspectRatio="xMidYMid meet">
 <g fill="#fcfbfb">
  <path d="M0 842.40 l0 -842.40 1296 0 1296 0 0 842.40 0 842.40 -1296 0 -1296 0 0 -842.40z m394.88 165.65 c23.90 -13.77 54.27 -31.39 67.43 -38.88 27.14 -15.80 51.23 -36.85 61.97 -54.67 14.38 -24.10 23.69 -59.74 21.47 -82.01 -4.05 -38.47 -18.43 -68.85 -52.24 -110.16 l-10.94 -13.16 -26.12 14.98 c-14.38 8.30 -26.93 16 -27.94 17.01 -1.01 1.01 2.03 6.28 7.29 12.56 14.98 17.82 29.77 39.08 35.64 51.64 4.86 10.53 5.47 13.97 5.47 34.02 0 20.25 -0.41 23.29 -5.67 33.82 -3.24 6.48 -9.11 14.58 -13.57 18.23 -4.25 3.64 -28.55 18.83 -53.87 33.41 -25.51 14.78 -47.59 27.54 -48.80 28.55 -1.42 0.81 -6.28 19.84 -10.73 42.12 -4.45 22.07 -8.51 41.92 -8.91 43.74 -0.81 3.04 0.41 2.84 7.49 -1.22 4.66 -2.63 28.15 -16.20 52.04 -29.97z m227.41 16.20 c17.82 -12.15 26.33 -25.11 26.33 -40.10 0 -21.47 -21.26 -43.13 -41.72 -42.93 -17.01 0.20 -36.85 16.60 -41.72 34.22 -4.45 15.80 7.70 38.27 25.92 47.59 12.96 6.89 22.68 7.29 31.18 1.22z m378.07 -25.92 c0 -16.20 -0.81 -26.33 -2.03 -26.33 -1.22 0 -2.03 10.13 -2.03 26.33 0 16.20 0.81 26.33 2.03 26.33 1.22 0 2.03 -10.13 2.03 -26.33z m56.90 0 c0 -13.57 -0.61 -25.31 -1.22 -25.92 -0.61 -0.61 -1.01 11.14 -1.01 25.92 0 14.78 0.41 26.53 1.01 25.92 0.61 -0.61 1.22 -12.15 1.22 -25.92z m39.89 -0.41 c-0.20 -20.66 -0.61 -23.90 -1.42 -13.77 -1.22 13.36 -0.61 40.50 1.01 40.50 0.41 0 0.61 -12.15 0.41 -26.73z m43.33 8.91 c0.41 -6.07 -0.20 -10.53 -1.42 -10.53 -1.22 0 -1.62 5.67 -1.22 14.58 1.01 15.39 1.62 14.18 2.63 -4.05z m96.19 -22.07 c-0.41 -7.70 -0.61 -1.42 -0.61 13.57 0 14.98 0.20 21.26 0.61 13.77 0.41 -7.70 0.41 -19.84 0 -27.34z m111.38 0 c-0.41 -7.70 -0.61 -1.42 -0.61 13.57 0 14.98 0.20 21.26 0.61 13.77 0.41 -7.70 0.41 -19.84 0 -27.34z m50.83 13.16 l9.52 -0.41 -9.52 -0.61 -9.52 -0.81 -0.81 -12.56 c-0.41 -6.89 -0.61 -0.20 -0.61 14.78 0 14.98 0.20 21.26 0.61 13.77 l0.81 -13.77 9.52 -0.41z m30.38 0 c-0.20 -14.78 -0.61 -21.26 -1.01 -14.18 -0.61 10.13 -1.42 12.56 -4.25 12.76 -3.04 0.20 -3.04 0.41 0.20 1.22 2.84 0.81 3.44 3.24 3.44 13.97 0 7.09 0.41 12.96 1.01 12.96 0.61 0 0.81 -12.15 0.61 -26.73z m29.36 0 c1.82 -1.22 1.82 -1.62 0 -1.62 -1.62 0 -2.63 -4.66 -3.24 -12.56 -0.41 -7.09 -0.61 -0.41 -0.61 14.58 0 14.98 0.20 21.47 0.61 14.18 0.41 -7.09 1.82 -13.77 3.24 -14.58z m48.19 0.41 c0 -13.77 -0.61 -25.31 -1.22 -25.92 -0.61 -0.61 -1.01 11.14 -1.01 25.92 0 14.78 0.41 26.53 1.01 25.92 0.81 -0.61 1.22 -12.35 1.22 -25.92z m123.32 0 c0 -16.20 -0.81 -26.33 -2.03 -26.33 -1.22 0 -2.03 8.10 -2.03 20.05 0 18.43 1.42 32.60 3.24 32.60 0.41 0 0.81 -11.74 0.81 -26.33z m72.29 -1.82 c-2.84 -1.01 -2.84 0.20 -1.62 14.98 l1.22 14.18 1.01 -14.18 c0.61 -7.70 0.20 -14.58 -0.61 -14.98z m208.98 -10.33 c-1.01 -12.35 -1.22 -10.13 -1.22 12.15 0 19.24 0.41 23.69 1.22 15.19 0.81 -6.68 0.81 -19.03 0 -27.34z m50.22 -1.42 c-0.41 -7.70 -0.61 -1.42 -0.61 13.57 0 14.98 0.20 21.26 0.61 13.77 0.41 -7.70 0.41 -19.84 0 -27.34z m41.11 13.57 c0 -16.20 -0.81 -26.33 -2.03 -26.33 -1.22 0 -2.03 10.13 -2.03 26.33 0 16.20 0.81 26.33 2.03 26.33 1.22 0 2.03 -10.13 2.03 -26.33z m46.78 -8.10 l6.07 0 -6.28 -9.11 c-3.44 -5.06 -6.68 -9.11 -7.09 -9.11 -0.61 0 -0.81 12.15 -0.61 26.93 0.41 21.26 0.61 23.08 1.01 9.11 l0.81 -17.82 6.07 0z m33.82 7.70 c-0.41 -24.30 -0.61 -25.11 -1.01 -7.29 -0.61 17.62 -1.22 19.64 -4.66 20.25 -3.85 0.61 -3.85 0.81 0.20 7.29 2.43 3.44 4.66 6.48 5.06 6.48 0.41 0 0.61 -12.15 0.41 -26.73z m-254.74 17.62 c0 -3.24 -1.22 -5.06 -3.04 -5.06 -1.82 0 -3.04 1.82 -3.04 5.06 0 3.24 1.22 5.06 3.04 5.06 1.82 0 3.04 -1.82 3.04 -5.06z m-567.61 -20.66 c-0.61 -2.03 -1.01 -0.41 -1.01 3.44 0 3.85 0.41 5.47 1.01 3.64 0.41 -2.03 0.41 -5.26 0 -7.09z m549.38 0.41 c0 -1.82 -1.82 -3.04 -5.06 -3.04 -3.24 0 -5.06 1.22 -5.06 3.04 0 1.82 1.82 3.04 5.06 3.04 3.24 0 5.06 -1.22 5.06 -3.04z m-223.36 -16.20 c-1.22 -3.85 -3.24 -7.09 -4.45 -7.09 -1.22 0 -3.24 3.24 -4.45 7.09 l-2.23 7.09 6.68 0 6.68 0 -2.23 -7.09z m104.89 -113.40 c33.21 -83.23 92.75 -232.67 95.58 -239.56 l2.84 -6.68 -21.87 0.61 -21.87 0.61 -16.60 46.58 c-9.31 25.72 -20.45 57.31 -25.11 70.47 l-8.51 23.69 -7.49 0 c-7.09 0 -7.70 -0.41 -10.73 -9.52 -2.84 -9.31 -25.72 -73.31 -40.10 -113.40 l-6.89 -18.83 -21.67 0 c-12.15 0 -21.87 0.41 -21.87 0.81 0 1.82 12.56 34.02 43.74 111.78 25.72 64.60 33.21 85.25 33.21 92.34 0 6.48 -3.44 17.62 -12.35 39.28 -6.68 16.60 -13.97 34.63 -16.20 39.89 l-3.85 9.72 20.66 -0.61 20.66 -0.61 18.43 -46.58z m-1016.55 -14.18 c4.45 -2.43 11.54 -6.48 15.80 -8.91 l7.49 -4.66 -6.48 -8.71 c-41.92 -54.88 -42.93 -56.70 -43.74 -87.28 -1.42 -43.33 4.66 -49.61 96.39 -101.05 13.77 -7.70 25.92 -15.80 27.14 -17.82 1.82 -3.64 18.23 -84.64 17.21 -85.66 -0.61 -0.61 -122.71 69.05 -142.76 81.40 -36.65 22.88 -61.76 61.76 -67.03 104.08 -5.67 43.94 11.34 87.07 53.87 137.09 l8.91 10.33 12.56 -7.09 c6.89 -4.05 16.20 -9.11 20.66 -11.74z m800.68 -25.51 c51.44 -8.51 88.29 -54.67 76.34 -95.38 -8.91 -31.18 -30.78 -45.36 -99.63 -65.61 -35.44 -10.33 -41.51 -12.96 -48.60 -20.45 -4.25 -4.66 -4.86 -7.29 -4.86 -21.87 0 -20.05 4.05 -27.74 18.23 -35.03 8.30 -4.25 11.34 -4.66 32.60 -4.05 22.07 0.61 24.10 1.01 33.41 6.68 7.49 4.66 11.14 8.91 14.98 16.81 l5.06 10.53 23.08 0 22.88 0 -1.22 -5.47 c-4.66 -19.24 -22.48 -41.51 -41.51 -51.84 -14.18 -7.90 -38.47 -13.57 -56.90 -13.57 -18.43 0 -42.73 5.67 -57.31 13.57 -33.41 18.02 -49.61 55.08 -37.67 86.47 9.92 26.93 32.81 41.51 86.87 55.89 17.21 4.45 37.06 10.94 44.15 14.18 10.73 5.06 13.36 7.29 16.60 14.58 5.47 12.15 5.26 28.75 -0.41 40.10 -6.89 13.57 -18.83 18.83 -44.15 19.84 -37.87 1.62 -54.47 -8.10 -63.58 -36.45 -1.01 -3.24 -4.05 -3.64 -24.70 -3.64 l-23.49 0 1.22 5.67 c0.81 3.04 4.05 11.14 7.49 18.23 18.63 38.27 69.05 59.53 121.10 50.83z m718.27 -2.84 c28.75 -11.54 48.19 -29.77 58.72 -54.88 l2.84 -6.89 -20.86 0 -21.06 0 -6.07 9.72 c-9.11 14.78 -20.45 19.64 -45.36 19.64 -18.02 0 -20.05 -0.41 -29.36 -6.07 -7.90 -5.06 -11.34 -8.91 -16.81 -19.84 -6.68 -12.96 -7.09 -15.19 -7.90 -37.87 -0.81 -20.25 -0.20 -26.12 3.44 -38.07 3.44 -11.74 5.87 -15.59 13.57 -22.48 22.27 -19.44 59.13 -19.24 77.56 0.81 4.45 4.86 8.30 10.33 8.30 12.15 0 2.43 3.64 3.04 22.27 3.04 12.35 0 22.27 -0.61 22.27 -1.22 0 -0.61 -2.63 -6.89 -6.07 -13.77 -18.83 -39.69 -72.50 -60.55 -116.64 -45.16 -43.94 14.98 -69.86 52.45 -69.86 100.64 0 48.80 32 90.52 78.37 102.26 14.38 3.64 41.11 2.43 52.65 -2.03z m-1149.39 -135.68 l0 -136.69 -23.29 0 -23.29 0 0 135.27 c0 74.52 0.61 136.08 1.42 136.69 0.61 0.81 11.14 1.42 23.29 1.42 l21.87 0 0 -136.69z m105.71 68.44 c0.61 -73.71 1.22 -77.36 12.15 -89.10 9.31 -9.92 19.64 -13.57 39.08 -13.57 21.87 -0.20 31.39 3.64 39.89 16 8.10 11.95 9.72 26.93 9.72 94.77 l0 60.14 21.26 0 21.26 0 0 -68.44 c0 -54.88 -0.61 -70.67 -3.04 -80.39 -6.48 -24.91 -19.64 -41.31 -41.31 -51.44 -9.72 -4.45 -13.97 -5.26 -30.58 -5.26 -16.60 0 -20.86 0.81 -30.38 5.26 -6.07 3.04 -14.78 8.71 -19.03 12.76 -6.28 5.87 -9.31 7.29 -14.18 6.89 -6.07 -0.61 -6.28 -0.81 -6.89 -12.15 l-0.61 -11.74 -21.06 0 -21.26 0 0 100.85 c0 55.49 0.61 101.65 1.42 102.26 0.61 0.81 10.73 1.42 22.07 1.42 l20.86 0 0.61 -68.24z m723.94 1.01 c-0.20 -60.75 0 -68.24 3.24 -75.53 4.25 -9.52 17.01 -23.29 21.67 -23.29 1.82 0 4.45 -1.22 5.87 -2.43 1.62 -1.82 8.71 -2.63 21.06 -2.63 16.60 0.20 19.84 0.81 28.15 5.67 6.68 3.85 10.73 8.10 14.18 14.98 4.66 9.52 4.66 10.94 5.26 80.19 l0.61 70.27 22.48 0 22.48 0 -1.22 -71.28 c-1.01 -64.19 -1.62 -72.90 -5.26 -84.64 -6.28 -20.05 -16.40 -31.79 -35.44 -41.51 -15.19 -7.70 -16.81 -8.10 -34.42 -8.10 -16 0 -20.05 0.81 -30.78 5.67 -6.89 3.24 -15.59 8.91 -19.24 12.76 -4.86 5.06 -8.30 6.89 -13.36 6.89 l-6.68 0 0 -12.15 0 -12.15 -21.26 0 -21.26 0 0 102.26 0 102.26 22.07 0 22.27 0 -0.41 -67.23z m-1335.08 -124.74 c8.71 -6.07 18.43 -19.64 21.26 -30.38 3.85 -13.57 -6.28 -33.82 -22.27 -44.35 -20.25 -13.36 -52.45 1.62 -60.35 27.94 -5.87 19.84 9.52 44.15 32.60 51.44 10.73 3.44 18.63 2.23 28.75 -4.66z"/>
 </g>
 <g fill="#000000">
  <path d="M1181.18 1028.70 c-6.07 -3.64 -10.73 -9.72 -10.73 -13.77 0 -1.01 3.04 -2.43 6.68 -3.04 4.86 -0.61 7.09 0.20 9.11 2.84 3.44 4.86 15.59 5.26 17.42 0.61 1.82 -4.86 -1.62 -7.90 -14.98 -12.76 -13.77 -5.06 -16.60 -8.91 -15.80 -20.86 0.81 -10.13 7.29 -15.80 20.05 -17.21 7.09 -0.81 10.33 0 16 3.85 9.11 6.07 10.33 12.76 2.84 14.58 -4.05 1.01 -6.28 0.41 -9.31 -2.63 -4.66 -5.06 -10.33 -5.47 -13.97 -1.01 -3.64 4.45 -0.20 8.91 9.52 12.35 12.35 4.05 16.40 6.68 18.83 12.15 3.85 8.51 2.63 14.78 -4.66 22.07 -5.67 5.67 -8.30 6.89 -15.59 6.89 -5.26 0 -11.54 -1.62 -15.39 -4.05z"/>
  <path d="M1271.70 1028.30 c-12.76 -6.48 -18.23 -15.59 -18.23 -29.97 0 -18.83 11.74 -32.20 29.77 -33.82 21.47 -1.82 38.68 15.39 36.25 36.65 -2.63 24.30 -26.73 38.07 -47.79 27.14z m26.93 -14.78 c2.63 -2.84 5.47 -7.49 6.07 -10.33 1.42 -7.70 -2.03 -18.43 -7.29 -22.07 -4.45 -3.04 -14.78 -4.05 -20.66 -1.82 -4.66 1.82 -9.11 11.54 -9.11 20.05 0 16.40 19.64 25.31 30.98 14.18z"/>
  <path d="M1605.42 1031.13 c-4.86 -0.41 -7.70 -1.62 -7.70 -3.44 0 -5.67 -6.28 -9.11 -16.40 -9.11 -9.52 0 -10.33 0.41 -12.15 6.07 -2.03 5.26 -3.24 6.07 -10.13 6.07 l-7.90 0 9.31 -25.72 c5.06 -14.38 10.33 -28.96 11.54 -32.40 1.82 -6.07 2.84 -6.68 10.33 -6.68 l8.30 0 11.95 32.40 c6.48 17.82 11.54 32.60 11.14 33.01 -0.41 0.20 -4.25 0.20 -8.30 -0.20z m-16.81 -31.18 c-3.64 -8.91 -8.10 -9.52 -10.94 -1.42 -1.22 3.64 -2.23 6.89 -2.23 7.09 0 0.41 3.64 0.81 8.10 0.81 l7.90 0 -2.84 -6.48z"/>
  <path d="M1796.98 1030.72 c-12.76 -5.06 -16.60 -21.67 -7.70 -32.20 4.05 -4.86 4.66 -6.89 3.04 -10.13 -3.85 -7.09 -2.63 -13.77 4.05 -19.24 11.34 -9.72 27.94 -4.66 31.39 9.31 1.01 4.45 0 6.68 -5.06 11.34 l-6.28 5.67 5.06 4.86 5.26 4.86 1.22 -4.45 c0.81 -3.24 2.63 -4.45 6.89 -4.45 6.89 0 7.70 4.66 2.84 14.18 -2.84 5.47 -2.63 6.07 2.03 11.74 2.84 3.44 5.06 6.68 5.06 7.29 0 2.43 -15.80 1.22 -16.60 -1.22 -0.61 -1.82 -2.84 -1.42 -8.10 1.01 -7.90 3.64 -16.20 4.25 -23.08 1.42z m18.23 -13.97 c1.22 -1.82 -8.30 -12.35 -11.14 -12.35 -3.24 0 -5.67 6.89 -3.64 10.53 2.03 3.85 12.76 5.06 14.78 1.82z m-1.22 -35.24 c0.81 -4.05 -5.06 -6.89 -8.10 -3.85 -3.04 3.04 -0.20 8.91 3.85 8.10 2.03 -0.41 3.85 -2.23 4.25 -4.25z"/>
  <path d="M2120.78 1031.33 l-16.81 -0.81 0 -32.20 0 -32.40 19.24 0 19.24 0 0 6.07 0 6.07 -13.16 0 c-11.54 0 -13.16 0.41 -13.16 3.85 0 8.71 2.03 10.33 13.36 10.33 10.73 0 10.94 0 10.94 6.07 0 5.67 -0.20 5.87 -11.54 6.48 -11.54 0.61 -11.74 0.61 -12.35 7.29 l-0.61 6.48 13.16 0 13.36 0 0 7.09 c0 4.45 -0.81 6.89 -2.43 6.68 -1.42 -0.20 -10.13 -0.81 -19.24 -1.01z"/>
  <path d="M2163.51 1029.92 c-6.48 -2.84 -12.96 -10.13 -12.96 -14.78 0 -1.22 3.04 -2.63 6.68 -3.04 4.66 -0.41 7.70 0.61 10.94 4.05 5.26 5.26 8.51 5.67 13.97 1.62 5.67 -4.25 1.82 -9.31 -10.94 -14.58 -14.18 -5.67 -18.63 -10.13 -18.63 -18.43 0 -9.11 2.84 -13.97 10.53 -18.02 12.35 -6.48 31.59 0 34.63 11.34 1.62 6.07 -9.92 7.70 -14.98 2.23 -4.66 -5.06 -10.33 -5.47 -13.97 -1.22 -4.05 4.86 -1.01 8.51 9.72 11.95 14.38 4.86 20.66 11.34 20.66 20.86 -0.20 16.81 -17.82 25.72 -35.64 18.02z"/>
  <path d="M2217.98 1029.71 c-5.26 -2.23 -12.76 -11.74 -12.76 -16.20 0 -0.61 3.44 -1.01 7.70 -1.01 5.06 0 8.71 1.42 11.14 4.05 4.05 4.86 7.29 5.06 12.76 1.22 5.67 -4.25 1.62 -9.52 -10.53 -13.97 -13.77 -5.26 -19.03 -10.53 -19.03 -19.64 0 -19.24 28.35 -27.34 41.31 -11.95 6.68 7.90 6.68 9.31 -1.01 10.94 -4.86 1.22 -7.09 0.41 -10.33 -2.84 -2.84 -3.24 -5.26 -4.05 -8.30 -3.04 -10.94 3.44 -8.51 9.52 6.28 14.98 15.80 5.87 18.63 8.91 18.63 19.64 0 16.81 -17.82 25.72 -35.84 17.82z"/>
  <path d="M990.22 998.33 l0 -32.40 18.43 0 c18.43 0 18.43 0 25.51 7.09 6.48 6.48 7.09 7.90 6.07 15.80 -1.62 12.56 -10.33 19.64 -23.69 19.64 l-10.13 0 0 11.14 0 11.14 -8.10 0 -8.10 0 0 -32.40z m32 -4.45 c3.44 -3.44 3.04 -13.16 -0.81 -14.58 -1.82 -0.61 -5.87 -1.22 -9.11 -1.22 -5.67 0 -5.87 0.41 -5.87 9.11 0 8.91 0.20 9.11 6.68 9.11 3.64 0 7.70 -1.01 9.11 -2.43z"/>
  <path d="M1048.95 998.33 l0 -32.40 7.09 0 6.89 0 0.61 12.76 0.61 12.56 12.15 0 12.15 0 0.61 -12.56 0.61 -12.76 6.89 0 7.09 0 0 32.40 0 32.40 -7.09 0 -7.09 0 0 -13.16 0 -13.16 -13.16 0 -13.16 0 0 13.16 0 13.16 -7.09 0 -7.09 0 0 -32.40z"/>
  <path d="M1131.97 1017.97 c0 -7.09 -1.22 -14.38 -2.63 -16.60 -1.62 -2.23 -6.48 -11.14 -11.14 -19.64 l-8.71 -15.80 8.30 0 c7.90 0 8.30 0.41 14.38 12.35 3.24 6.89 6.48 11.95 6.89 11.54 0.61 -0.41 3.44 -5.87 6.68 -11.95 5.47 -9.72 6.68 -10.94 13.36 -11.54 4.05 -0.41 7.29 0 7.29 0.61 0 0.61 -4.45 9.72 -10.13 20.05 -9.11 16.81 -10.13 20.25 -10.13 31.18 l0 12.56 -7.09 0 -7.09 0 0 -12.76z"/>
  <path d="M1229.18 998.33 l0 -32.40 7.09 0 7.09 0 0 32.40 0 32.40 -7.09 0 -7.09 0 0 -32.40z"/>
  <path d="M1340.55 1004.40 l0 -26.33 -9.11 0 c-8.71 0 -9.11 -0.20 -9.11 -6.07 l0 -6.07 25.31 0 25.31 0 0 6.07 c0 5.87 -0.41 6.07 -9.11 6.07 l-9.11 0 0 26.33 0 26.33 -7.09 0 -7.09 0 0 -26.33z"/>
  <path d="M1381.05 998.33 l0 -32.40 7.09 0 7.09 0 0 11.95 0 11.95 9.92 0.81 c16.20 1.01 16.40 0.81 16.40 -12.76 l0 -11.95 7.09 0 7.09 0 0 32.40 0 32.40 -7.09 0 -7.09 0 0 -13.16 0 -13.16 -13.16 0 -13.16 0 0 13.16 0 13.16 -7.09 0 -7.09 0 0 -32.40z"/>
  <path d="M1447.88 998.33 l0 -32.40 20.25 0 20.25 0 0 6.07 0 6.07 -13.16 0 -13.16 0 0 5.87 c0 6.89 2.84 8.30 15.39 8.30 8.51 0 8.91 0.20 8.91 6.07 l0 6.07 -12.15 0 -12.15 0 0 7.09 0 7.09 13.16 0 13.16 0 0 6.07 0 6.07 -20.25 0 -20.25 0 0 -32.40z"/>
  <path d="M1498.50 998.33 l0 -32.40 18.43 0 c17.62 0 18.63 0.20 24.30 5.87 8.51 8.51 8.30 20.66 -0.41 28.55 -6.07 5.87 -6.07 5.87 -2.63 12.56 1.82 3.64 5.06 9.11 7.29 12.35 l3.85 5.47 -8.91 0 c-8.71 0 -9.11 -0.20 -14.58 -10.53 -9.31 -17.42 -13.16 -17.42 -13.16 -0.41 l0 10.94 -7.09 0 -7.09 0 0 -32.40z m32.20 -7.29 c2.43 -2.23 2.43 -3.64 0.61 -7.90 -2.03 -4.25 -3.64 -5.06 -10.53 -5.06 -8.10 0 -8.10 0 -8.10 7.70 0 4.25 0.61 8.51 1.42 9.31 2.03 2.03 13.16 -0.61 16.60 -4.05z"/>
  <path d="M1620.20 998.33 l-0.41 -32.40 18.23 0 c16.60 0 18.63 0.41 24.30 5.26 5.47 4.45 6.28 6.48 6.28 14.98 0 14.58 -5.87 20.66 -20.86 21.87 l-11.54 0.81 0 10.94 0 10.94 -7.90 0 -7.70 0 -0.41 -32.40z m30.38 -4.05 c4.25 -2.43 5.06 -10.13 1.42 -13.77 -1.42 -1.42 -5.47 -2.43 -9.11 -2.43 -6.48 0 -6.68 0.20 -6.68 9.11 0 8.51 0.41 9.11 5.26 9.11 2.84 0 6.89 -1.01 9.11 -2.03z"/>
  <path d="M1694.52 1017.97 c-0.61 -10.94 -2.23 -15.59 -11.34 -31.39 -5.87 -10.33 -10.53 -19.03 -10.53 -19.64 0 -0.61 3.44 -1.01 7.90 -1.01 7.49 0 8.10 0.61 14.18 12.15 3.64 6.68 6.89 12.15 7.09 12.15 0.41 0 3.24 -5.06 6.28 -11.34 6.07 -12.35 7.70 -13.57 16.81 -12.56 l6.28 0.61 -11.14 19.24 c-9.92 17.62 -10.94 20.25 -10.94 32 l0 12.56 -6.89 0 -6.89 0 -0.81 -12.76z"/>
  <path d="M1903.50 998.33 l0 -32.40 20.25 0 20.25 0 0 6.07 0 6.07 -13.16 0 -13.16 0 0 7.09 0 7.09 12.35 0 c12.15 0 12.15 0 11.54 5.67 -0.61 5.06 -1.42 5.47 -10.94 6.07 -11.74 0.61 -12.96 2.23 -12.96 18.23 0 8.30 -0.20 8.51 -7.09 8.51 l-7.09 0 0 -32.40z"/>
  <path d="M1954.13 998.33 l0 -32.40 7.09 0 7.09 0 0 32.40 0 32.40 -7.09 0 -7.09 0 0 -32.40z"/>
  <path d="M1992.60 1004.40 l0 -26.33 -8.10 0 c-7.70 0 -8.10 -0.41 -8.10 -6.07 l0 -6.07 25.31 0 25.31 0 0 6.07 c0 5.87 -0.41 6.07 -9.11 6.07 l-9.11 0 0 26.33 0 26.33 -8.10 0 -8.10 0 0 -26.33z"/>
  <path d="M2035.13 998.33 l0 -32.40 7.09 0 c6.68 0 7.70 1.01 20.25 19.64 l13.16 19.84 0 -19.84 0 -19.64 7.09 0 7.09 0 0 32.40 0 32.40 -6.68 0 c-6.28 0 -7.70 -1.42 -18.63 -17.21 -6.48 -9.52 -12.56 -17.21 -13.57 -17.21 -0.81 0 -1.62 7.70 -1.62 17.21 l0 17.21 -7.09 0 -7.09 0 0 -32.40z"/>
  <path d="M1623.04 915.30 c0.61 -2.23 8.91 -22.88 18.43 -45.76 9.31 -23.08 17.01 -43.33 17.01 -44.96 0 -1.82 -14.98 -40.50 -33.21 -86.26 -37.26 -93.15 -47.79 -120.29 -47.79 -122.92 0 -1.01 13.36 -1.82 29.97 -1.82 l29.77 0 6.89 18.83 c14.38 40.10 37.26 104.08 40.10 113.40 1.82 5.26 3.85 9.52 4.66 9.52 0.81 0 5.26 -10.73 9.92 -23.90 4.66 -12.96 15.80 -44.55 25.11 -70.27 l16.60 -46.58 29.97 -0.61 c16.40 -0.20 29.77 0 29.77 0.61 0 0.41 -19.24 49.01 -42.73 107.73 -23.29 58.93 -50.42 126.97 -60.35 151.47 l-17.62 44.55 -28.96 0.61 c-28.15 0.41 -28.75 0.41 -27.54 -3.64z"/>
  <path d="M1415.88 830.45 c-19.84 -4.86 -39.69 -15.39 -51.23 -26.93 -12.15 -12.15 -22.48 -32.81 -23.69 -47.38 l-0.81 -10.94 29.57 0 c26.53 0 29.77 0.41 30.78 3.64 6.28 19.44 15.19 28.96 32.60 34.02 25.72 7.49 54.27 -0.41 62.98 -17.42 5.47 -10.94 5.47 -16.60 0.41 -27.94 -3.24 -7.29 -5.87 -9.52 -16.60 -14.58 -7.09 -3.24 -26.93 -9.72 -44.15 -14.18 -17.42 -4.66 -38.68 -11.74 -47.59 -16.20 -30.17 -14.38 -44.15 -36.04 -44.15 -67.84 0.20 -37.26 22.48 -65.81 61.15 -78.17 16.81 -5.47 55.49 -7.49 73.51 -3.85 38.27 7.49 64.80 28.96 74.52 60.14 6.89 22.27 8.51 20.86 -25.72 20.86 l-29.97 0 -5.06 -10.53 c-3.85 -7.90 -7.49 -12.15 -14.98 -16.81 -8.71 -5.26 -12.15 -6.07 -27.34 -6.68 -14.98 -0.61 -18.63 0 -26.53 4.05 -12.35 6.28 -18.23 15.59 -18.23 28.96 0 8.30 1.01 11.74 4.86 15.80 7.09 7.49 13.16 10.13 48.60 20.45 69.05 20.25 90.72 34.42 99.83 65.81 4.05 14.38 2.63 37.46 -3.44 53.46 -6.68 17.62 -22.88 34.02 -43.33 43.74 -9.11 4.45 -22.48 8.91 -29.77 10.13 -19.44 3.24 -49.21 2.43 -66.22 -1.62z"/>
  <path d="M2135.56 831.26 c-35.44 -9.11 -62.98 -35.64 -74.32 -71.89 -5.47 -17.21 -6.07 -52.04 -1.22 -70.27 9.52 -36.04 32.40 -60.95 67.03 -73.10 18.63 -6.48 50.42 -7.29 69.05 -1.62 35.44 10.73 58.52 33.41 67.43 66.62 l2.03 7.49 -29.97 0 c-29.77 0 -29.97 0 -31.18 -4.86 -0.61 -2.63 -5.06 -8.30 -10.13 -12.96 -17.62 -16.20 -42.93 -15.59 -62.78 1.82 -12.96 11.54 -18.43 28.96 -17.01 54.88 1.01 15.59 2.23 20.25 7.90 31.59 9.31 18.23 20.45 25.51 39.89 25.51 18.63 0.20 31.18 -5.87 39.49 -19.44 l6.07 -9.72 28.96 0 c16 0 29.16 0.41 29.16 1.01 0 0.61 -2.23 6.48 -4.86 12.96 -7.49 18.83 -18.02 33.41 -30.98 42.93 -11.95 9.11 -15.80 11.34 -29.97 17.01 -11.54 4.86 -49.21 5.87 -64.60 2.03z"/>
  <path d="M993.67 828.83 c-0.81 -0.61 -1.42 -65 -1.42 -142.76 l0 -141.35 29.36 0 29.36 0 0 142.76 0 142.76 -27.94 0 c-15.39 0 -28.75 -0.61 -29.36 -1.42z"/>
  <path d="M1100.99 828.83 c-0.81 -0.61 -1.42 -49.41 -1.42 -108.34 l0 -106.92 27.34 0 27.34 0 0 10.73 c0 6.07 0.41 11.34 1.01 11.95 0.61 0.61 4.45 -2.03 8.71 -6.07 4.05 -3.85 12.56 -9.31 18.63 -12.35 10.13 -4.86 13.36 -5.26 36.45 -5.26 23.08 0 26.33 0.41 36.65 5.26 21.67 10.13 34.83 26.53 41.31 51.44 2.43 9.72 3.04 26.12 3.04 86.47 l0 74.52 -27.34 0 -27.34 0 0 -60.14 c0 -33.21 -1.01 -66.22 -2.03 -73.51 -4.05 -24.70 -17.82 -37.26 -41.51 -37.06 -19.03 0 -33.21 9.11 -40.90 25.92 -3.24 7.09 -3.64 15.80 -4.25 76.54 l-0.61 68.24 -26.93 0 c-14.78 0 -27.54 -0.61 -28.15 -1.42z"/>
  <path d="M1824.53 721.91 l0 -108.34 27.34 0 27.34 0 0 12.56 0 12.56 7.70 -7.29 c4.05 -4.25 12.96 -10.13 19.64 -13.16 11.14 -5.26 13.97 -5.67 36.65 -5.67 l24.50 0 16 8.10 c19.03 9.72 29.16 21.47 35.44 41.51 3.64 11.95 4.25 20.25 5.26 90.72 l1.22 77.36 -28.55 0 -28.55 0 -0.61 -70.27 c-0.61 -69.25 -0.61 -70.67 -5.26 -80.19 -6.89 -13.57 -18.43 -20.05 -36.04 -20.25 -7.49 0 -13.97 0.81 -15.39 2.23 -1.42 1.42 -3.85 2.43 -5.67 2.43 -4.66 0 -17.42 13.77 -21.47 23.29 -3.24 7.29 -3.64 15.19 -3.24 75.53 l0.41 67.23 -28.35 0 -28.35 0 0 -108.34z"/>
 </g>
 <g fill="#13b7ef">
  <path d="M326.02 1053.41 c0 -9.31 20.45 -104.49 22.68 -106.11 1.42 -1.01 23.49 -13.77 49.01 -28.55 25.31 -14.58 49.61 -29.77 53.87 -33.41 4.45 -3.64 10.33 -11.74 13.57 -18.23 4.86 -9.72 5.67 -14.18 5.67 -27.74 0 -13.36 -1.01 -18.23 -5.47 -27.94 -6.07 -12.96 -19.84 -32.60 -38.47 -55.28 -6.48 -7.90 -11.74 -15.19 -11.74 -16.20 0.20 -2.03 59.13 -36.04 66.62 -38.27 5.47 -1.62 5.47 -1.62 29.57 29.97 40.90 53.46 51.03 106.11 31.39 161.80 -7.90 22.48 -17.21 36.65 -35.44 53.66 -16.60 15.39 -17.01 15.80 -138.71 85.66 -16.20 9.11 -32.40 18.43 -35.84 20.66 -6.68 3.85 -6.68 3.85 -6.68 0z"/>
  <path d="M585.02 1029.10 c-18.43 -9.52 -29.77 -31.18 -27.34 -51.84 3.85 -33.41 41.72 -53.26 72.09 -37.67 14.38 7.49 23.90 21.87 25.72 39.28 2.03 19.64 -5.26 35.03 -22.68 48.19 -9.31 7.09 -11.14 7.70 -23.49 7.70 -10.94 0 -15.59 -1.22 -24.30 -5.67z"/>
  <path d="M629.17 868.32 c-35.03 -40.30 -51.44 -72.70 -56.29 -111.17 -4.66 -35.24 3.44 -70.88 22.68 -100.24 12.35 -18.83 24.10 -30.78 41.72 -42.12 27.74 -17.62 152.68 -88.29 156.53 -88.29 2.23 0 4.05 1.42 4.05 3.04 0 6.07 -18.02 95.99 -19.84 99.63 -1.22 2.03 -13.36 10.13 -27.14 17.82 -44.55 24.91 -71.28 41.51 -79.38 49.21 -11.95 11.34 -17.42 24.70 -17.42 42.32 0 23.90 6.48 36.85 40.70 79.99 8.71 11.14 15.39 21.06 14.78 22.07 -0.61 1.01 -4.45 3.64 -8.51 5.87 -4.05 2.23 -8.91 4.86 -10.53 5.87 -3.85 2.43 -23.49 13.57 -38.88 22.27 l-11.34 6.28 -11.14 -12.56z"/>
  <path d="M504.63 643.14 c-33.41 -10.94 -45.97 -53.66 -23.29 -80.19 10.53 -12.35 20.86 -16.81 39.28 -17.01 13.36 -0.20 16.20 0.41 23.69 5.47 16.81 10.94 26.73 32 23.90 50.83 -1.82 11.74 -12.56 28.75 -22.68 36.04 -10.13 7.29 -27.34 9.31 -40.90 4.86z"/>
 </g>
</svg>