<svg xmlns="http://www.w3.org/2000/svg" viewBox="0 0 100 100">
  <title>InSync Physical Therapy</title>
  <!-- SpaceNavy rounded square background -->
  <rect width="100" height="100" rx="22" fill="#003D59"/>
  <!-- Mark: paths from "Favicon vector logo.svg", recolored to NeoBlue -->
  <!-- viewBox frames the mark (x:1290-1970, y:290-1000) in the original 3230x1312 space -->
  <svg x="8" y="6" width="84" height="88" viewBox="1290 290 680 710">
    <!-- Main wing / body arc -->
    <path fill="#0EC5E6" d="M 1959.5,322.5 C 1957.1,329.141 1955.44,336.141 1954.5,343.5C 1954.5,343.833 1954.5,344.167 1954.5,344.5C 1952.8,349.959 1951.47,355.626 1950.5,361.5C 1946.27,382.543 1941.94,403.543 1937.5,424.5C 1936.88,424.611 1936.38,424.944 1936,425.5C 1935.26,429.813 1934.76,434.147 1934.5,438.5C 1934.08,442.189 1933.08,445.689 1931.5,449C 1923.41,452.035 1915.91,455.868 1909,460.5C 1896.72,466.253 1884.89,472.586 1873.5,479.5C 1866.98,482.514 1860.65,485.847 1854.5,489.5C 1831.23,500.286 1808.9,512.786 1787.5,527C 1777.27,536.293 1769.11,547.127 1763,559.5C 1761.97,562.802 1761.14,566.135 1760.5,569.5C 1759.7,570.952 1759.2,572.618 1759,574.5C 1758.67,574.167 1758.33,573.833 1758,573.5C 1757.5,583.161 1757.33,592.828 1757.5,602.5C 1757.89,606.692 1759.23,610.359 1761.5,613.5C 1762.6,617.805 1764.27,621.139 1766.5,623.5C 1767.15,626.803 1768.82,629.47 1771.5,631.5C 1772.11,632.391 1772.44,633.391 1772.5,634.5C 1773.55,635.878 1774.88,636.878 1776.5,637.5C 1776.82,639.048 1777.82,639.715 1779.5,639.5C 1780.14,641.76 1781.31,643.76 1783,645.5C 1786.07,649.22 1789.57,652.554 1793.5,655.5C 1794.39,656.325 1794.72,657.325 1794.5,658.5C 1795.68,658.281 1796.68,658.614 1797.5,659.5C 1805.81,668.322 1813.81,677.322 1821.5,686.5C 1822.48,688.48 1823.82,690.147 1825.5,691.5C 1827.05,691.821 1827.71,692.821 1827.5,694.5C 1829.14,694.48 1830.48,695.147 1831.5,696.5C 1834.32,699.891 1836.98,703.391 1839.5,707C 1806.42,725.211 1773.09,743.045 1739.5,760.5C 1720.87,737.311 1701.87,714.311 1682.5,691.5C 1667.25,671.446 1656.58,649.113 1650.5,624.5C 1649.9,621.873 1649.4,619.207 1649,616.5C 1648.62,615.944 1648.12,615.611 1647.5,615.5C 1647.5,614.5 1647.5,613.5 1647.5,612.5C 1644.56,594.758 1644.89,577.091 1648.5,559.5C 1648.5,558.167 1648.5,556.833 1648.5,555.5C 1650.04,553.162 1650.71,550.495 1650.5,547.5C 1651.45,546.081 1651.78,544.415 1651.5,542.5C 1653.59,537.809 1654.92,532.809 1655.5,527.5C 1663.4,508.369 1673.4,490.369 1685.5,473.5C 1708.51,445.175 1736.51,423.341 1769.5,408C 1833.55,374.298 1897.38,340.131 1961,305.5C 1960.85,311.174 1960.35,316.841 1959.5,322.5 Z"/>
    <!-- Head circle -->
    <path fill="#0EC5E6" d="M 1585.5,335.5 C 1611.93,341.932 1628.93,358.266 1636.5,384.5C 1636.26,386.898 1636.93,388.898 1638.5,390.5C 1638.5,391.167 1638.5,391.833 1638.5,392.5C 1638.56,399.524 1638.23,406.524 1637.5,413.5C 1632.76,435.005 1620.76,451.005 1601.5,461.5C 1598.28,461.345 1595.62,462.345 1593.5,464.5C 1593.17,464.5 1592.83,464.5 1592.5,464.5C 1581.61,467.356 1570.61,468.023 1559.5,466.5C 1529.32,458.649 1511.65,439.316 1506.5,408.5C 1506.5,402.5 1506.5,396.5 1506.5,390.5C 1512.38,362.953 1528.72,344.953 1555.5,336.5C 1565.48,335.668 1575.48,335.334 1585.5,335.5 Z"/>
    <!-- Lower body shape -->
    <path fill="#0EC5E6" d="M 1599.5,632.5 C 1600.24,634.94 1601.57,636.94 1603.5,638.5C 1605.3,642.314 1606.63,646.314 1607.5,650.5C 1607.62,653.105 1608.62,655.105 1610.5,656.5C 1610.5,656.833 1610.5,657.167 1610.5,657.5C 1610.34,660.187 1610.5,662.854 1611,665.5C 1611.67,664.748 1612.5,664.414 1613.5,664.5C 1613.5,665.833 1613.5,667.167 1613.5,668.5C 1614.72,673.643 1616.05,678.643 1617.5,683.5C 1617.5,685.167 1617.5,686.833 1617.5,688.5C 1618.56,700.511 1618.56,712.511 1617.5,724.5C 1617.35,728.519 1617.02,732.519 1616.5,736.5C 1614.17,750.501 1610.5,764.168 1605.5,777.5C 1603.39,778.784 1602.39,780.784 1602.5,783.5C 1599,792.162 1594.67,800.495 1589.5,808.5C 1583.81,816.033 1578.48,823.7 1573.5,831.5C 1572.32,831.281 1571.32,831.614 1570.5,832.5C 1567.39,837.949 1563.06,841.949 1557.5,844.5C 1557.74,847.034 1556.74,848.7 1554.5,849.5C 1550.81,851.855 1547.81,854.855 1545.5,858.5C 1536.54,864.444 1527.54,870.444 1518.5,876.5C 1503.76,884.18 1489.09,891.846 1474.5,899.5C 1473.29,899.932 1472.29,900.599 1471.5,901.5C 1469.5,902.5 1467.5,903.5 1465.5,904.5C 1461.86,906.268 1458.53,908.268 1455.5,910.5C 1453.83,911.167 1452.17,911.833 1450.5,912.5C 1444.94,915.555 1439.28,918.389 1433.5,921C 1432.62,921.708 1431.95,922.542 1431.5,923.5C 1388.61,945.71 1345.95,968.377 1303.5,991.5C 1302.57,990.311 1302.24,988.978 1302.5,987.5C 1303.46,985.698 1304.12,983.698 1304.5,981.5C 1304.5,980.833 1304.5,980.167 1304.5,979.5C 1305.77,977.095 1306.43,974.428 1306.5,971.5C 1306.5,970.167 1306.5,968.833 1306.5,967.5C 1307.46,965.698 1308.12,963.698 1308.5,961.5C 1308.5,960.5 1308.5,959.5 1308.5,958.5C 1309.61,956.401 1310.28,954.067 1310.5,951.5C 1310.5,950.833 1310.5,950.167 1310.5,949.5C 1311.25,946.947 1311.92,944.28 1312.5,941.5C 1312.5,940.833 1312.5,940.167 1312.5,939.5C 1313.41,937.343 1314.07,935.01 1314.5,932.5C 1314.5,930.833 1314.5,929.167 1314.5,927.5C 1316.42,923.837 1317.42,919.837 1317.5,915.5C 1317.5,915.167 1317.5,914.833 1317.5,914.5C 1318.12,914.389 1318.62,914.056 1319,913.5C 1319.5,911.527 1319.66,909.527 1319.5,907.5C 1319.5,906.5 1319.5,905.5 1319.5,904.5C 1321.21,903.365 1321.88,901.698 1321.5,899.5C 1322.83,891.503 1324.17,883.503 1325.5,875.5C 1327.18,874.817 1327.84,873.483 1327.5,871.5C 1327.96,866.135 1328.62,860.801 1329.5,855.5C 1331.31,854.082 1331.97,852.082 1331.5,849.5C 1342.25,842.565 1353.58,836.565 1365.5,831.5C 1368.75,830.551 1371.42,828.884 1373.5,826.5C 1389.69,817.476 1406.03,808.81 1422.5,800.5C 1424.18,800.715 1425.18,800.048 1425.5,798.5C 1432.42,795.24 1439.08,791.574 1445.5,787.5C 1448.22,787.614 1450.22,786.614 1451.5,784.5C 1489.75,767.628 1508.08,738.295 1506.5,696.5C 1506.28,692.2 1505.28,688.2 1503.5,684.5C 1498.67,669.491 1490.33,656.825 1478.5,646.5C 1477.61,645.675 1477.28,644.675 1477.5,643.5C 1472.29,640.86 1468.29,636.86 1465.5,631.5C 1459.2,626.301 1453.37,620.635 1448,614.5C 1441.32,605.392 1434.15,596.726 1426.5,588.5C 1426.71,587.914 1427.04,587.414 1427.5,587C 1454.91,572.615 1482.58,558.615 1510.5,545C 1515.12,542.073 1519.79,539.24 1524.5,536.5C 1533.19,545.69 1541.69,555.024 1550,564.5C 1551.44,565.9 1552.27,567.567 1552.5,569.5C 1554.61,569.679 1556.27,570.679 1557.5,572.5C 1574.21,590.67 1588.21,610.67 1599.5,632.5 Z"/>
    <!-- Lower circle -->
    <path fill="#0EC5E6" d="M 1681.5,829.5 C 1689.17,829.5 1696.83,829.5 1704.5,829.5C 1706.51,830.924 1708.85,831.59 1711.5,831.5C 1715.33,832.444 1719,833.778 1722.5,835.5C 1723.83,837.719 1725.83,839.052 1728.5,839.5C 1739.87,847.394 1748.21,857.727 1753.5,870.5C 1754.33,873.659 1755.33,876.659 1756.5,879.5C 1757.45,880.919 1757.78,882.585 1757.5,884.5C 1757.5,892.167 1757.5,899.833 1757.5,907.5C 1756.34,914.473 1754.34,921.139 1751.5,927.5C 1749.27,928.401 1748.27,930.067 1748.5,932.5C 1739.29,946.352 1726.63,955.686 1710.5,960.5C 1701.23,961.996 1691.9,962.662 1682.5,962.5C 1652.62,957.115 1633.78,939.782 1626,910.5C 1625.5,907.854 1625.34,905.187 1625.5,902.5C 1625.61,895.82 1625.95,889.153 1626.5,882.5C 1627.44,877.245 1628.77,872.079 1630.5,867C 1634.23,861.419 1638.23,855.919 1642.5,850.5C 1644.83,848.5 1647.17,846.5 1649.5,844.5C 1650.39,843.675 1650.72,842.675 1650.5,841.5C 1651.87,841.657 1653.21,841.49 1654.5,841C 1658.35,837.743 1662.68,835.576 1667.5,834.5C 1669.57,833.486 1671.57,832.486 1673.5,831.5C 1673.83,831.5 1674.17,831.5 1674.5,831.5C 1677.01,831.073 1679.34,830.407 1681.5,829.5 Z"/>
  </svg>
</svg>
